<?xml version="1.0" encoding="UTF-8"?>
<svg version="1.1" xmlns="http://www.w3.org/2000/svg" width="512" height="512">
<path d="M0 0 C1.3765979 0.8038916 1.3765979 0.8038916 2.78100586 1.62402344 C5.50605601 3.21822863 8.22267567 4.8259581 10.9375 6.4375 C12.32256568 7.25450158 13.70795071 8.07096215 15.09375 8.88671875 C17.06034944 10.04459558 19.0264902 11.20317708 20.99047852 12.36547852 C27.93097584 16.46255114 34.93535108 20.44718162 41.9375 24.4375 C50.15540192 29.121128 58.35691686 33.82708418 66.49707031 38.64501953 C79.92663581 46.58246463 93.47133052 54.32835743 107.02416992 62.05297852 C111.33193244 64.50869732 115.63517579 66.97226899 119.9375 69.4375 C120.97342285 70.03014648 122.0093457 70.62279297 123.07666016 71.23339844 C126.34648582 73.10756088 129.61124945 74.99028159 132.875 76.875 C134.39504639 77.74427124 134.39504639 77.74427124 135.94580078 78.63110352 C148.74322201 86.04894401 148.74322201 86.04894401 150.9375 90.4375 C151.4514269 94.20629724 151.24324772 95.96061472 149.171875 99.19140625 C145.01655838 103.93049132 139.25390099 106.61278891 133.8125 109.625 C132.63659126 110.28750109 131.4613862 110.95125262 130.28686523 111.61621094 C127.93583408 112.94581646 125.58183127 114.26988551 123.22509766 115.58935547 C118.79262681 118.08109796 114.39441038 120.6294408 110 123.1875 C108.47415296 124.07195044 106.94811323 124.95606854 105.421875 125.83984375 C104.68130859 126.26894043 103.94074219 126.69803711 103.17773438 127.14013672 C100.91598108 128.44996203 98.65341898 129.7583797 96.390625 131.06640625 C87.70721483 136.0871632 79.03609319 141.12833516 70.375 146.1875 C55.30130701 154.9898505 40.17503308 163.70081925 25.04296875 172.40234375 C22.77860455 173.70565745 20.51428099 175.00904176 18.25 176.3125 C17.16162842 176.93793701 16.07325684 177.56337402 14.9519043 178.20776367 C9.67661921 181.24716097 4.43773023 184.32813773 -0.74169922 187.52807617 C-11.06939091 193.88615341 -19.66269958 197.04769903 -32.0625 195.4375 C-40.60771542 193.0956353 -47.9948132 188.87848051 -55.5625 184.375 C-57.28894631 183.36300013 -59.01539447 182.35100328 -60.74217224 181.33956909 C-62.45373128 180.33532285 -64.16267329 179.3266207 -65.87158203 178.31787109 C-70.232572 175.74799009 -74.61543561 173.21685981 -79 170.6875 C-80.5262316 169.80371333 -82.05227545 168.91960235 -83.578125 168.03515625 C-86.58763446 166.29139565 -89.59809229 164.54929032 -92.609375 162.80859375 C-100.37404755 158.31896235 -108.13067529 153.81619841 -115.87426758 149.2902832 C-124.41445562 144.29903439 -132.96654298 139.33215833 -141.5625 134.4375 C-151.08363611 129.01391909 -160.5616916 123.51921102 -170.01171875 117.97265625 C-174.10116647 115.57392941 -178.20891886 113.2114472 -182.33203125 110.87109375 C-184.32553327 109.72658417 -186.31902332 108.58205373 -188.3125 107.4375 C-189.23538818 106.92195557 -190.15827637 106.40641113 -191.10913086 105.87524414 C-196.13282057 102.96977842 -199.43645692 100.68229159 -202.0625 95.4375 C-202.3125 92.5 -202.3125 92.5 -201.0625 89.4375 C-195.53153109 83.39994085 -188.56692457 79.6424611 -181.4375 75.8125 C-179.19020702 74.58030967 -176.94413398 73.34589204 -174.69921875 72.109375 C-173.57950684 71.49384766 -172.45979492 70.87832031 -171.30615234 70.24414062 C-166.56759322 67.6048709 -161.9057858 64.84445754 -157.25 62.0625 C-148.94824692 57.1150136 -140.58601428 52.28086163 -132.1875 47.5 C-123.45128059 42.52618915 -114.73720611 37.51819189 -106.0625 32.4375 C-96.8417478 27.03805067 -87.57883461 21.71582954 -78.29263306 16.43008423 C-71.90682497 12.79497008 -65.53469539 9.14027737 -59.19921875 5.41796875 C-58.11189453 4.77923828 -57.02457031 4.14050781 -55.90429688 3.48242188 C-53.86303687 2.28041676 -51.82383017 1.07491495 -49.78710938 -0.13476562 C-31.86830735 -10.68933093 -17.9844226 -10.73321489 0 0 Z M-55.625 15.3125 C-57.43116155 19.23893815 -57.88071338 22.19301809 -57.0625 26.4375 C-54.07912848 32.65285734 -48.94494684 36.7011293 -42.73046875 39.48046875 C-30.47433103 43.49054146 -14.65194665 43.1767335 -3.0625 37.4375 C0.78944205 34.68066453 4.78323317 31.74603365 6.9375 27.4375 C7.21218266 25.20232384 7.21218266 25.20232384 7.25 22.6875 C7.28738281 21.84703125 7.32476562 21.0065625 7.36328125 20.140625 C6.76809667 16.36202201 5.37435286 14.37513007 2.9375 11.4375 C0.58703381 9.94429561 -1.50048527 8.76545298 -4 7.625 C-4.60779297 7.32658203 -5.21558594 7.02816406 -5.84179688 6.72070312 C-21.6068913 -0.81320931 -43.84633148 2.09740848 -55.625 15.3125 Z M4.53125 48.99609375 C1.81511846 52.96935373 1.3972602 56.52417561 2.20703125 61.23046875 C4.01861827 66.70398033 7.880507 70.10699982 12.875 72.75 C25.95295645 78.50233423 39.41581152 78.40519885 52.9375 74.4375 C59.0265104 71.55018393 63.88059183 67.55131635 66.9375 61.4375 C67.49123126 55.78944116 66.46430999 51.85395576 62.9375 47.4375 C54.3355616 39.39655759 42.00814401 37.70739483 30.6171875 38.05078125 C21.35735221 39.02394865 10.97724502 41.8517826 4.53125 48.99609375 Z M-175.0625 85.75 C-176.76910126 90.33649089 -177.05697651 94.71373933 -175.359375 99.36328125 C-171.3203554 106.16028811 -163.39147124 109.19084778 -156.10546875 111.2890625 C-143.93688269 113.73255368 -129.89446346 112.80663423 -119.08984375 106.23828125 C-115.18450291 103.19652929 -112.50768117 100.07710955 -111.67578125 95.14453125 C-111.36673479 90.6049822 -111.6043212 87.29288303 -114.4375 83.625 C-122.54241643 75.53915396 -133.31358183 73.41220919 -144.3125 73.0625 C-156.3996449 73.25647625 -167.0176344 76.44812416 -175.0625 85.75 Z M63.875 84.125 C61.21970636 88.66469558 61.04896746 92.29909955 61.9375 97.4375 C64.70092944 103.29597041 69.28389803 106.90349639 75.1796875 109.37890625 C88.67063916 114.08029849 102.19134428 113.51316512 115.375 108 C120.01503927 105.17070776 123.77879286 102.55022743 125.9375 97.4375 C126.72103374 92.86545144 126.59453904 88.80065151 124.1875 84.75 C118.56143709 77.91608177 109.07738489 74.86249118 100.58203125 73.68359375 C87.54859421 72.47073329 73.58696195 74.52155159 63.875 84.125 Z M-114.625 120.375 C-116.57547955 124.53036947 -117.72997894 127.87218914 -116.5390625 132.44921875 C-113.67697763 139.34185432 -108.31490248 142.60217971 -101.6640625 145.47265625 C-90.62847562 149.12288883 -75.71229472 149.38768236 -65.0625 144.4375 C-59.35626449 141.53450256 -54.99703229 138.30656459 -52.0625 132.4375 C-51.68637318 127.92397813 -51.59451386 125.41247112 -53.5625 121.3125 C-61.3916585 112.30896772 -70.57839761 109.11730454 -82.296875 108.27734375 C-94.24732176 107.83966815 -106.56319041 111.13341339 -114.625 120.375 Z M-55.625 156.3125 C-57.42721853 160.23036636 -57.89446806 163.20125445 -57.0625 167.4375 C-53.45887461 174.5061498 -48.60462447 178.13584217 -41.3125 180.75 C-29.10528491 184.18983381 -15.30686004 184.06788993 -3.86328125 178.3359375 C0.73625996 175.70034087 4.18663012 172.99362824 6.9375 168.4375 C7.91833883 163.58154382 7.74133478 159.01749806 5.1875 154.6875 C0.50362787 149.00763207 -7.86075633 145.37549845 -15.0625 144.4375 C-30.46004518 143.51327311 -44.67540942 144.02759349 -55.625 156.3125 Z " fill="#FFFFFF" transform="translate(281.0625,53.5625)"/>
<path d="M0 0 C4.12918193 4.01758242 4.89193121 7.46700585 5.13142776 13.0804987 C5.13588976 14.82004904 5.13588976 14.82004904 5.14044189 16.59474182 C5.14341302 17.24391553 5.14638414 17.89308925 5.1494453 18.56193489 C5.15809212 20.72953556 5.15963715 22.89708074 5.16113281 25.06469727 C5.16576398 26.62230038 5.17078904 28.17990237 5.17617798 29.73750305 C5.18927862 33.96515018 5.19574283 38.19278143 5.20018864 42.42044568 C5.20312423 45.06571429 5.20723004 47.7109786 5.21169281 50.35624504 C5.22536401 58.6440067 5.23503149 66.93175849 5.2388947 75.21953064 C5.24336921 84.76477848 5.26089042 94.30988268 5.2898953 103.85508686 C5.31156989 111.24639982 5.32160212 118.63767254 5.32293582 126.02901691 C5.32398008 130.43697351 5.32980618 134.84479502 5.34775543 139.25271797 C5.36433545 143.40519781 5.3663439 147.55744246 5.35761642 151.70994377 C5.35685123 153.22555551 5.36111968 154.74118041 5.37107468 156.25675964 C5.45709086 170.18017511 4.22037205 182.51021528 -5.83251953 192.89257812 C-12.05171281 198.62152302 -18.87391447 202.68581698 -26.25 206.75 C-27.50243266 207.45124667 -28.7542144 208.15365702 -30.00537109 208.85717773 C-32.50630598 210.2619358 -35.01006154 211.66142122 -37.51660156 213.05615234 C-42.23883378 215.69130884 -46.93360974 218.37294781 -51.625 221.0625 C-52.44887207 221.53324951 -53.27274414 222.00399902 -54.12158203 222.48901367 C-65.43609444 228.9549164 -76.71700865 235.4793102 -88 242 C-89.29550781 242.74830078 -89.29550781 242.74830078 -90.6171875 243.51171875 C-97.92708952 247.73442914 -105.23281819 251.96392966 -112.51953125 256.2265625 C-123.73374411 262.78611918 -134.97238064 269.30018193 -146.25 275.75 C-146.86181122 276.10033295 -147.47362244 276.45066589 -148.10397339 276.81161499 C-149.84463972 277.80795629 -151.58636153 278.80245291 -153.328125 279.796875 C-154.3274707 280.36760742 -155.32681641 280.93833984 -156.35644531 281.52636719 C-161.27348305 284.26733872 -164.18722832 285.62279697 -170 285 C-173.8116383 282.32155147 -174.77990752 279.38888748 -176 275 C-176.25168228 271.77245617 -176.25168228 271.77245617 -176.25396729 268.22685242 C-176.25708727 267.57062403 -176.26020725 266.91439564 -176.26342177 266.23828155 C-176.27135969 264.05288566 -176.26509467 261.8677707 -176.25878906 259.68237305 C-176.26150088 258.10990232 -176.26506288 256.53743287 -176.26940918 254.96496582 C-176.27851504 250.7024243 -176.27499576 246.43997977 -176.26865101 242.17743659 C-176.26357901 237.70933764 -176.26828605 233.24124687 -176.27142334 228.77314758 C-176.27506062 221.26712559 -176.27027132 213.76114297 -176.26074219 206.25512695 C-176.24986999 197.5914448 -176.25337519 188.92785687 -176.264395 180.26417702 C-176.27348887 172.81513659 -176.27474253 165.36612442 -176.26951766 157.91708022 C-176.26640797 153.4729453 -176.26596078 149.02885456 -176.27259064 144.58472252 C-176.27839363 140.40271756 -176.27431343 136.22083325 -176.26280212 132.03884125 C-176.26017077 130.50907656 -176.2608944 128.97930162 -176.26532745 127.44954109 C-176.30497456 112.37074567 -174.22160582 101.4275892 -163.99194336 89.95141602 C-160.82135216 86.84533249 -157.26458177 84.83709266 -153.375 82.75 C-151.6848645 81.80734784 -149.99476152 80.86463738 -148.3046875 79.921875 C-147.43295898 79.44298828 -146.56123047 78.96410156 -145.66308594 78.47070312 C-141.24626121 76.03148859 -136.87637899 73.51081108 -132.5 71 C-130.72278728 69.98544752 -128.94544408 68.97112358 -127.16796875 67.95703125 C-121.60473946 64.77789539 -116.05848382 61.5699498 -110.515625 58.35546875 C-102.55982597 53.74189172 -94.59261489 49.14817976 -86.62548828 44.55419922 C-80.14163581 40.81472372 -73.66237753 37.0674885 -67.1875 33.3125 C-60.63943168 29.51619281 -54.07420334 25.75085213 -47.5 22 C-40.55394666 18.03560437 -33.61359095 14.06168838 -26.6875 10.0625 C-25.55054688 9.40797852 -25.55054688 9.40797852 -24.390625 8.74023438 C-20.12730758 6.27419783 -15.94911934 3.72259078 -11.83520508 1.01342773 C-7.77229516 -1.23017198 -4.45047426 -1.29805499 0 0 Z M-39.26171875 31.09765625 C-42.77954074 34.82624646 -45.5957493 38.47809803 -48 43 C-48.40992188 43.7321875 -48.81984375 44.464375 -49.2421875 45.21875 C-51.77413489 50.45726183 -52.40105405 55.47617371 -52.5 61.25 C-52.51853027 61.92361572 -52.53706055 62.59723145 -52.55615234 63.29125977 C-52.49304666 68.29455052 -51.13440345 71.16149143 -48 75 C-44.7013834 77.19907773 -43.53887419 77.29651919 -39.6875 77.3125 C-38.76324219 77.32925781 -37.83898437 77.34601563 -36.88671875 77.36328125 C-28.126971 76.26090433 -21.4023735 69.00924847 -15.94140625 62.57421875 C-8.84750905 53.00889929 -6.56863128 44.32888541 -6.46875 32.48046875 C-7.22386682 27.53334313 -9.51235845 24.48764155 -13 21 C-24.4175354 18.3960007 -31.32878211 23.2557407 -39.26171875 31.09765625 Z M-154.1875 98.6875 C-160.53913333 106.95212525 -164.1158593 115.47909569 -164.25 125.875 C-164.27578125 127.06867188 -164.3015625 128.26234375 -164.328125 129.4921875 C-163.88080534 134.27424766 -162.499354 137.67704058 -158.875 140.875 C-153.89336948 142.82433368 -149.56424443 142.85739442 -144.4765625 141.15625 C-132.72650156 135.80545302 -126.42940877 126.30489572 -121 115 C-118.40077188 107.46563613 -116.90086481 98.09219866 -120.02734375 90.5078125 C-122.60335237 87.06837717 -125.15372148 85.60659073 -129.375 84.875 C-139.8414907 84.54189561 -147.73300442 91.05835888 -154.1875 98.6875 Z M-38 152 C-46.34416578 160.82407142 -52.1042539 171.03339097 -52.25 183.3125 C-52.27578125 184.60800781 -52.3015625 185.90351563 -52.328125 187.23828125 C-51.9011135 192.13366314 -50.59876786 195.54657468 -46.9375 198.875 C-41.61512833 200.91335511 -36.68648405 201.12736384 -31.375 198.8984375 C-20.50346505 192.70033678 -12.22825168 183.07847192 -8.0625 171.1875 C-6.31246291 164.40474755 -5.19274818 155.69376906 -8.3359375 149.26953125 C-11.00187754 145.47130191 -11.00187754 145.47130191 -14.98046875 143.3828125 C-24.40234212 142.28220428 -31.11309118 145.66136936 -38 152 Z M-155 222 C-160.79572334 230.58498665 -164.28039663 238.11649526 -164.3125 248.625 C-164.32925781 249.89601563 -164.34601563 251.16703125 -164.36328125 252.4765625 C-163.85892187 257.36830614 -162.12006467 259.84882242 -158.75 263.3125 C-155.0862711 265.56069728 -153.26642403 265.55953102 -149 265 C-137.70469579 262.00290436 -130.3407307 254.72867484 -124.5078125 244.83984375 C-119.56849768 235.53704097 -117.37995168 226.61369892 -119 216 C-121.06565215 212.14502197 -122.74056379 209.37085303 -127 208 C-138.71935535 205.86173166 -147.97411776 213.28674231 -155 222 Z " fill="#FFFFFF" transform="translate(441,175)"/>
<path d="M0 0 C3.75045525 1.75140949 7.22907662 3.8923564 10.75 6.0625 C12.88970377 7.3465884 15.03036854 8.6290765 17.171875 9.91015625 C18.28755859 10.58191895 19.40324219 11.25368164 20.55273438 11.94580078 C25.73046826 15.04644615 30.98252568 18.01708057 36.23104858 20.99569702 C46.66833239 26.92135169 57.05575632 32.92945186 67.4140625 38.9921875 C74.6049179 43.19725381 81.82883663 47.34091394 89.06811523 51.46191406 C96.75442136 55.84414538 104.39433185 60.30399008 112.0300293 64.77368164 C117.86500003 68.18501896 123.71876007 71.55958575 129.59716797 74.89550781 C133.740311 77.24833027 137.87277914 79.61937655 142 82 C142.91869873 82.527146 142.91869873 82.527146 143.85595703 83.06494141 C154.4783918 89.2180851 160.91381348 96.28176261 165 108 C165.86695422 112.32118466 166.12934255 116.42156322 166.14044189 120.8245697 C166.14341302 121.48629277 166.14638414 122.14801584 166.1494453 122.82979113 C166.15807467 125.03359451 166.1596356 127.23734321 166.16113281 129.44116211 C166.16576492 131.02672948 166.17079011 132.61229574 166.17617798 134.19786072 C166.1892626 138.49535862 166.19573875 142.79284094 166.20018864 147.09035563 C166.20312459 149.77696551 166.20723029 152.46357117 166.21169281 155.15017891 C166.22535484 163.56126603 166.23502889 171.97234346 166.2388947 180.38344091 C166.2433781 190.08380897 166.26094451 199.78403631 166.2898953 209.48436159 C166.31151766 216.99026526 166.32159921 224.49612933 166.32293582 232.00206381 C166.32398307 236.48194489 166.32987441 240.96169345 166.34775543 245.44154167 C166.36424663 249.65475575 166.36638658 253.8677378 166.35761642 258.08097267 C166.35684672 259.62448626 166.36118 261.16801238 166.37107468 262.71149445 C166.38382052 264.82408637 166.37790408 266.93585958 166.36749268 269.04844666 C166.36895924 270.2288449 166.3704258 271.40924314 166.3719368 272.62541103 C165.91949935 276.73038377 164.90977268 279.33940103 163 283 C159.17264548 285.55156968 157.56150369 285.49920071 153 285 C149.74421283 283.68562115 146.77456991 281.962108 143.75 280.1875 C142.43563965 279.43980347 142.43563965 279.43980347 141.09472656 278.67700195 C138.38792378 277.13237491 135.69355283 275.56759205 133 274 C131.43810138 273.10311857 129.87562775 272.20723752 128.3125 271.3125 C123.52787777 268.56517432 118.76302624 265.78455237 114 263 C110.14609595 260.74955008 106.29182068 258.49973627 102.4375 256.25 C101.43581787 255.66516846 100.43413574 255.08033691 99.40209961 254.4777832 C78.88365207 242.50611513 58.27202958 230.69646637 37.62890625 218.94140625 C32.41391645 215.97023939 27.20465314 212.98923467 22 210 C20.79126221 209.30680664 20.79126221 209.30680664 19.55810547 208.59960938 C-9.54943178 191.8641222 -9.54943178 191.8641222 -14 176 C-14.77239054 171.3475163 -15.12688568 166.88238242 -15.13371277 162.16906738 C-15.13597833 161.51874054 -15.13824388 160.86841371 -15.14057809 160.19837999 C-15.14686203 158.03913584 -15.14609238 155.87995536 -15.14526367 153.72070312 C-15.14825858 152.16454488 -15.15166188 150.60838737 -15.15544128 149.05223083 C-15.16424957 144.83949579 -15.166618 140.62678107 -15.16725707 136.4140377 C-15.16796913 133.77985296 -15.17010635 131.14567334 -15.17275429 128.51148987 C-15.18199569 119.31576206 -15.18609049 110.12004871 -15.18530273 100.92431641 C-15.18470157 92.36112208 -15.19526408 83.79799066 -15.2110464 75.23481226 C-15.22412924 67.87326083 -15.22948635 60.51172995 -15.22884732 53.15016699 C-15.22859265 48.75752389 -15.23142734 44.36493679 -15.24202538 39.9723053 C-15.25171941 35.84201156 -15.2517766 31.71182725 -15.24450874 27.58152962 C-15.24346468 26.06865847 -15.24581521 24.55578046 -15.2518692 23.04292107 C-15.25961722 20.97213055 -15.25492619 18.90171538 -15.24723816 16.83093262 C-15.24778293 15.67395622 -15.24832769 14.51697983 -15.24888897 13.32494354 C-14.87900696 8.38363654 -14.1198174 4.31743223 -10.875 0.5 C-6.99716019 -1.52322077 -4.08722495 -1.12894998 0 0 Z M-1.375 25.3125 C-4.93265484 31.33659622 -3.67587881 39.69659235 -2.33984375 46.2265625 C1.17283329 57.99631154 8.88839331 68.56199331 19.5 74.875 C24.82420918 77.60027317 28.80801889 78.63158778 34.6875 76.9375 C38.56537924 74.66930648 40.0263521 73.02320533 42 69 C44.85045708 56.98735944 40.10326073 46.21287116 34 36 C28.28991616 28.48280969 20.56966093 21.56239362 11 20 C5.5163079 20 2.54249091 21.49810095 -1.375 25.3125 Z M111.25 89.5 C107.26432513 94.28280985 108.48334951 102.22877914 109 108 C112.10570478 119.9810594 118.84313615 131.64790495 129.3515625 138.54296875 C134.80802711 141.5583834 139.76501 143.29945298 146 142 C150.12536625 139.89981355 152.23054633 138.22486294 154 134 C156.34707982 124.27097557 153.81112924 114.57204148 149 106 C143.61733398 97.60351008 137.62791583 89.5868706 128 86 C120.83845222 84.50993603 116.9069299 84.65120295 111.25 89.5 Z M56.9375 116.25 C52.35768108 122.75038814 52.30069255 128.1327912 53 136 C54.71836019 144.00599632 58.04260304 150.53881681 63 157 C63.47050781 157.62261719 63.94101563 158.24523437 64.42578125 158.88671875 C65.55195576 160.31187765 66.76796493 161.66529534 68 163 C68.66 163 69.32 163 70 163 C70 163.66 70 164.32 70 165 C71.41328129 165.81837442 72.83078346 166.62946219 74.25 167.4375 C75.03890625 167.88996094 75.8278125 168.34242188 76.640625 168.80859375 C81.04399471 171.03214965 85.08219417 171.58346849 90 171 C93.88924935 169.08674024 96.3068785 166.65198524 97.98828125 162.64453125 C100.20959256 153.41859411 98.12506402 143.63165937 93.875 135.25 C88.18371719 126.09964411 80.64618771 118.82309385 71 114 C65.61995758 113.39355399 61.404216 112.9683311 56.9375 116.25 Z M-0.75 147.5 C-4.72666895 152.27200274 -3.43235998 160.22708076 -3 166 C-0.25187576 178.12315377 7.01627077 189.69901016 17.41796875 196.60546875 C22.83450772 199.60346009 27.8144928 201.28914012 34 200 C38.12536625 197.89981355 40.23054633 196.22486294 42 192 C44.9153145 179.91555118 40.15592716 169.23642745 34 159 C28.60671793 151.60265683 22.49000805 145.54246828 13.38671875 143.37890625 C7.12527116 142.47911304 4.0619589 143.3754638 -0.75 147.5 Z M112 211 C107.68865288 216.89532137 108.44695287 222.98705508 109 230 C110.89275703 241.24613137 117.7031196 251.3656654 126 259 C132.45881402 263.45839057 138.08520169 265.55542444 146 265 C149.4234649 263.59949163 150.72854474 262.41687771 152.75 259.3125 C156.04563302 250.57907251 155.1446383 242.60069395 151.84375 233.98046875 C146.51180029 222.44272202 138.39633443 213.69816722 127 208 C121.44150565 207.48842176 116.39599395 207.1368538 112 211 Z " fill="#FFFFFF" transform="translate(81,175)"/>
</svg>
