<?xml version="1.0" encoding="UTF-8"?>
<svg version="1.1" xmlns="http://www.w3.org/2000/svg" width="360" height="360">
<path d="M0 0 C0.99 0.33 1.98 0.66 3 1 C3.41900023 3.18705422 3.8349566 5.37469143 4.25 7.5625 C4.4524231 8.62368042 4.4524231 8.62368042 4.65893555 9.70629883 C5.45786976 13.94449774 6.20058107 18.18606139 6.87890625 22.4453125 C9.87599204 41.05955026 14.49639818 58.67785538 22 76 C21.77860352 75.2565332 21.55720703 74.51306641 21.32910156 73.74707031 C16.8487496 58.61830642 12.5805292 43.58864643 10 28 C9.88430664 27.31131836 9.76861328 26.62263672 9.64941406 25.91308594 C8.23172718 17.2344864 7.733303 8.7861844 8 0 C9.65 0 11.3 0 13 0 C13.09498779 0.82387207 13.18997559 1.64774414 13.2878418 2.49658203 C16.95281222 33.77824649 24.41457935 62.98540775 34.23095703 92.88989258 C49.32668158 138.96187032 44.27784013 178.78202363 32.38623047 225.27368164 C22.69006862 263.30774459 16.89598578 297.39820373 31.29150391 334.99560547 C31.99253753 336.97888804 32.52407168 338.95218778 33 341 C30.72265625 340.96875 30.72265625 340.96875 28 340 C26.50980174 337.44714477 25.46367603 335.23616988 24.4375 332.5 C24.14085449 331.74404541 23.84420898 330.98809082 23.53857422 330.20922852 C13.12583554 302.70447123 14.71110804 275.25972502 21 247 C21.27827637 245.74751465 21.55655273 244.4950293 21.84326172 243.20458984 C24.20073995 232.70885902 26.56810675 222.20446259 29.3828125 211.8203125 C36.3067369 186.14364834 42.22863624 156.32991819 37 130 C36.98582031 131.11890625 36.97164063 132.2378125 36.95703125 133.390625 C36.20683379 163.97258749 27.64594492 194.3582793 21.25683594 224.13574219 C20.21821051 228.97690471 19.18795272 233.81976516 18.1640625 238.6640625 C15.55648736 250.97181715 12.83954993 263.24606788 9.91479492 275.48291016 C7.53735627 285.55883747 6.83564299 294.85066129 6.875 305.1875 C6.87693359 306.41243164 6.87886719 307.63736328 6.88085938 308.89941406 C6.93107247 319.61991001 7.35154824 330.30054594 8 341 C6.35 341 4.7 341 3 341 C1.17751802 329.72850472 0.59572201 318.71818816 0.625 307.3125 C0.62587616 306.47251465 0.62675232 305.6325293 0.62765503 304.76708984 C0.66445228 294.05336078 0.88811033 283.70701582 3.64013672 273.28955078 C9.44450026 250.9016398 14.14252009 228.24504568 18.77197266 205.59155273 C19.42731676 202.38502125 20.08656257 199.17933302 20.74951172 195.97436523 C27.79384989 165.31607055 27.79384989 165.31607055 30.5 134.125 C30.48924438 132.61993896 30.48924438 132.61993896 30.47827148 131.08447266 C30.02141317 112.43113865 23.47149002 95.87008224 16 79 C16.27714844 80.01320313 16.55429688 81.02640625 16.83984375 82.0703125 C17.20588081 83.42183394 17.57175772 84.77339876 17.9375 86.125 C18.11990234 86.79015625 18.30230469 87.4553125 18.49023438 88.140625 C25.08136835 112.58774013 21.1274402 140.5750063 18.1875 165.3125 C18.05689178 166.41684387 17.92628357 167.52118774 17.79171753 168.65899658 C13.55739671 203.96196914 13.55739671 203.96196914 8.6875 217.8125 C8.38481201 218.69413818 8.08212402 219.57577637 7.77026367 220.48413086 C1.4062744 238.57834754 1.4062744 238.57834754 -5 244 C-7.9375 244.125 -7.9375 244.125 -11 243 C-15.54241628 238.39238157 -17.68085197 233.6535265 -19.875 227.625 C-20.37990967 226.26906738 -20.37990967 226.26906738 -20.89501953 224.88574219 C-24.81725925 214.11657628 -28.14884423 203.10094968 -31 192 C-31.25823296 191.04300705 -31.25823296 191.04300705 -31.52168274 190.06668091 C-33.07768541 183.84101613 -33.33646601 177.8597699 -33.37109375 171.4609375 C-33.38216156 170.35816467 -33.39322937 169.25539185 -33.40463257 168.11920166 C-33.43161399 164.53766041 -33.43788746 160.95663864 -33.4375 157.375 C-33.43889984 156.14980652 -33.44029968 154.92461304 -33.44174194 153.66229248 C-33.42119744 131.75184394 -31.74909013 110.56991856 -28 89 C-27.78649902 87.73494629 -27.57299805 86.46989258 -27.35302734 85.16650391 C-21.70184578 52.34532785 -21.70184578 52.34532785 -12 41 C-9 39 -9 39 -6.1875 38.3125 C-2.47662793 39.11288417 -2.1481426 39.61922096 -0.0625 42.625 C3.69708485 48.8577335 6.84821315 55.44465635 10 62 C9.69707031 61.04867187 9.39414063 60.09734375 9.08203125 59.1171875 C6.03592091 49.10451001 3.96436079 39.00312609 2.25 28.6875 C2.03964111 27.43759277 1.82928223 26.18768555 1.61254883 24.89990234 C0.33746249 16.99488854 -0.86112727 9.01990002 -1 1 C-0.67 0.67 -0.34 0.34 0 0 Z M-7 43 C-20.88965504 56.88965504 -22.49471702 81.2084109 -25.1875 99.8125 C-25.31795715 100.7059613 -25.44841431 101.59942261 -25.58282471 102.5199585 C-27.65589959 116.88456933 -28.94222474 131.00531232 -28.9765625 145.53662109 C-28.99757432 148.64155576 -29.06875248 151.74142608 -29.16059875 154.8449707 C-29.62447955 170.94532249 -28.93163484 185.59166792 -24 201 C-23.65694824 202.10456543 -23.31389648 203.20913086 -22.96044922 204.34716797 C-18.21784917 224.2138132 -18.21784917 224.2138132 -7 240 C-2.61006413 234.67311037 0.34630317 229.62924144 2.625 223.125 C3.03492188 222.04605469 3.03492188 222.04605469 3.453125 220.9453125 C9.48982239 204.24566365 11.23951928 186.59180484 13.1875 169.0625 C13.44902794 166.78050232 13.71139339 164.49860046 13.97460938 162.21679688 C18.55642797 122.20040923 20.71986476 79.74114327 -4 45 C-4.99 44.34 -5.98 43.68 -7 43 Z M11 65 C12 68 12 68 12 68 Z M12 68 C13 70 13 70 13 70 Z M13 71 C14 73 14 73 14 73 Z M14 73 C15 76 15 76 15 76 Z M23 79 C24 82 24 82 24 82 Z M24 82 C25 84 25 84 25 84 Z M25 85 C26 87 26 87 26 87 Z M26 88 C27 90 27 90 27 90 Z M35 118 C36 120 36 120 36 120 Z " fill="#6B5353" transform="translate(96,15)"/>
<path d="M0 0 C9.59765495 6.62695223 11.68681281 22.32901241 14.5 33.0625 C14.89222072 34.54316643 15.28488449 36.02371557 15.67797852 37.50415039 C16.25946498 39.69487001 16.84020598 41.88575644 17.41712952 44.0776825 C18.42421197 47.89228247 19.47799065 51.68494337 20.62109375 55.4609375 C24.49593803 68.45354721 25.41181985 81.49261576 26 95 C26.03464355 95.74765625 26.06928711 96.4953125 26.10498047 97.265625 C27.38514227 129.07088709 19.25039053 160.85976418 10 191 C9.41870656 192.91733474 8.83741728 194.83467076 8.25645447 196.75210571 C-4.48768231 238.72441122 -4.48768231 238.72441122 -12.03125 243.20703125 C-14.82360215 244.33172865 -16.18060509 244.03148594 -19 243 C-27.01095358 236.39096329 -30.83188617 226.43732131 -34.8125 217.125 C-35.07190369 216.51961395 -35.33130737 215.91422791 -35.59857178 215.29049683 C-39.40520018 206.35661772 -42.75048124 197.34583784 -45.625 188.0625 C-46.10223511 186.53036865 -46.10223511 186.53036865 -46.58911133 184.96728516 C-53.44491971 161.83293975 -52.27700097 138.60456482 -42.95703125 116.38891602 C-37.32092196 102.44845318 -36.59920079 87.22531611 -35.72155762 72.37442017 C-32.54283526 19.92611119 -32.54283526 19.92611119 -14 3 C-9.43944348 -0.71846206 -5.76304401 -1.81429163 0 0 Z M-17.6875 13.8125 C-30.35613142 31.27466763 -29.88301004 54.72931228 -31.20898438 75.45385742 C-32.24754144 91.33353791 -33.48524371 106.49422234 -40.0625 121.1875 C-48.77412091 140.72799652 -48.51153765 163.78291434 -42 184 C-41.76394043 184.75490723 -41.52788086 185.50981445 -41.28466797 186.28759766 C-38.05935031 196.45847366 -34.14453585 206.3233835 -29.9375 216.125 C-29.53837402 217.06037598 -29.13924805 217.99575195 -28.72802734 218.95947266 C-24.05221715 229.7407459 -24.05221715 229.7407459 -17 239 C-15.02418332 239.05081138 -15.02418332 239.05081138 -13 238 C-4.68085523 228.55311262 -2.24554678 215.36747884 1.109375 203.546875 C2.65714477 198.11832401 4.32916523 192.7377222 6.0390625 187.35839844 C12.49771533 166.95324623 17.45561788 146.26926212 20 125 C20.14248169 123.86691406 20.14248169 123.86691406 20.2878418 122.7109375 C23.00165839 99.01268488 21.51209036 75.0709478 14.91455078 52.19726562 C14.0029278 49.01023559 13.11577931 45.81725695 12.23324585 42.62208557 C11.36263232 39.47574863 10.48336767 36.33186834 9.60229492 33.18844604 C9.16297723 31.61834509 8.72576373 30.04765368 8.29077148 28.47634888 C5.14224238 15.22102796 5.14224238 15.22102796 -2 4 C-9.14123668 3.03687269 -13.15257955 9.06665302 -17.6875 13.8125 Z " fill="#6C5353" transform="translate(327,58)"/>
<path d="M0 0 C1.32 0.33 2.64 0.66 4 1 C4.15557373 1.81452637 4.31114746 2.62905273 4.47143555 3.46826172 C8.57129212 24.79955218 13.02593365 44.67273352 21.5425415 64.74267578 C25.42028562 73.8987669 28.92898026 83.09636357 32 92.5625 C32.34901367 93.61743652 32.69802734 94.67237305 33.05761719 95.75927734 C38.60170249 113.31554748 40.58957008 129.90040153 40.25 148.25 C40.22985862 150.18227268 40.21162166 152.11456617 40.1953125 154.046875 C40.15202642 158.69844852 40.08344362 163.3489808 40 168 C40.66966797 167.31945557 41.33933594 166.63891113 42.02929688 165.93774414 C42.91681641 165.04176514 43.80433594 164.14578613 44.71875 163.22265625 C45.59466797 162.33586182 46.47058594 161.44906738 47.37304688 160.53540039 C52.12800722 155.9461566 56.94392769 151.42152722 63.625 150.5 C68.36813431 150.58592635 70.81009672 152.58840188 74.12109375 155.828125 C82.13773656 165.09476409 86.49066456 176.86988758 88.58203125 188.81640625 C88.71065552 189.55065826 88.83927979 190.28491028 88.97180176 191.04141235 C90.20576246 198.53290502 90.61586898 206.00732812 90.90887451 213.58502197 C91.68039162 238.94693398 91.68039162 238.94693398 99 263 C104.115496 275.2957922 105.37438522 287.4422157 105.3125 300.6875 C105.30730347 302.5113623 105.30730347 302.5113623 105.30200195 304.37207031 C105.1480775 317.21328191 103.75209825 329.01992037 99 341 C97.35 341 95.7 341 94 341 C94.61741343 336.32784258 95.45012771 331.78069127 96.5 327.1875 C101.0363084 306.09919802 100.97277312 282.55801721 91.95703125 262.703125 C86.42867011 250.07897465 85.61883204 236.07903112 85.09140015 222.47265625 C84.35849701 187.80377361 84.35849701 187.80377361 68.19140625 158.16015625 C65.97925401 156.76205557 65.97925401 156.76205557 63.0546875 157.05859375 C59.51344118 158.14994971 57.79375148 159.51187359 55.125 162.0625 C54.26519531 162.86816406 53.40539062 163.67382812 52.51953125 164.50390625 C50.92341022 166.08517964 49.35420237 167.69449333 47.82421875 169.33984375 C42.18393264 175.39630631 42.18393264 175.39630631 38 176 C37.01 176 36.02 176 35 176 C32.43388245 172.19979539 32.99462348 168.60016772 33.375 164.25 C35.17832296 137.70639956 32.85652367 114.13997466 24 89 C23.69545898 88.12875488 23.39091797 87.25750977 23.07714844 86.35986328 C19.8859295 77.28128368 16.56408824 68.28245266 12.84204102 59.4074707 C7.00783777 45.4106402 3.77907313 31.09411631 1.1875 16.1875 C1.00127075 15.12184814 1.00127075 15.12184814 0.8112793 14.03466797 C0.04989344 9.30677087 -0.10188067 4.78839161 0 0 Z " fill="#6C5252" transform="translate(130,15)"/>
<path d="M0 0 C4.82325111 2.32549607 7.39725556 5.66929065 9.24169922 10.7175293 C9.8200211 12.92759994 10.27725158 15.12766431 10.6875 17.375 C10.84839111 18.21329346 11.00928223 19.05158691 11.17504883 19.9152832 C15.16072612 41.58272722 15.10558251 63.55884466 15.46356201 85.52062988 C15.49567257 87.430159 15.53284271 89.33960161 15.57080078 91.24902344 C16.1980608 123.89817111 12.13994438 163.95397951 -6.5 191.6875 C-8.4296875 193.65234375 -8.4296875 193.65234375 -10.5 194.6875 C-13.82531095 194.6512991 -15.09097555 194.09325879 -17.45703125 191.74609375 C-31.19945423 172.33311308 -41.66250093 147.86315144 -39.5 123.6875 C-37.9079898 116.35216188 -34.17421507 109.99034167 -30.31835938 103.6328125 C-25.08149756 94.93498036 -24.37607448 86.29857193 -24.2890625 76.37890625 C-24.26096385 74.56053834 -24.23229924 72.7421791 -24.203125 70.92382812 C-24.16220617 68.10067276 -24.12526101 65.27767389 -24.09863281 62.4543457 C-23.8978122 42.79296941 -22.94747553 18.76655916 -8.5 3.6875 C-7.695625 2.82125 -6.89125 1.955 -6.0625 1.0625 C-3.5 -0.3125 -3.5 -0.3125 0 0 Z M-1.5 5.6875 C-11.40493954 11.51248926 -14.10544357 20.30813492 -16.921875 30.984375 C-18.39056082 37.85147356 -18.65855061 44.44523618 -18.7109375 51.44921875 C-18.73901404 53.55925244 -18.76767855 55.66927838 -18.796875 57.77929688 C-18.83799423 61.07250684 -18.87492431 64.36557322 -18.90136719 67.65893555 C-19.15077674 96.30878271 -19.15077674 96.30878271 -27.0625 109.125 C-34.73247638 121.94959702 -35.59593737 134.75695197 -31.9375 149.375 C-31.17628137 151.82899851 -30.36125997 154.26679891 -29.5 156.6875 C-29.25862305 157.3690918 -29.01724609 158.05068359 -28.76855469 158.75292969 C-25.83502932 166.85979162 -22.35466065 174.45089266 -17.75 181.75 C-17.37335205 182.35207275 -16.9967041 182.95414551 -16.60864258 183.57446289 C-15.43099119 185.40975831 -15.43099119 185.40975831 -13.5 187.6875 C-12.51 187.6875 -11.52 187.6875 -10.5 187.6875 C2.87879961 163.02137566 9.68690904 133.12005651 9.6328125 105.0859375 C9.63376923 103.97304352 9.63472595 102.86014954 9.63571167 101.71353149 C9.63639031 99.35849959 9.6345581 97.00346578 9.63037109 94.6484375 C9.62508965 91.12235054 9.63028971 87.59639516 9.63671875 84.0703125 C9.72273229 56.95694188 9.72273229 56.95694188 7.125 30 C6.99343506 29.09209717 6.86187012 28.18419434 6.72631836 27.2487793 C5.73796745 16.04782935 5.73796745 16.04782935 0.40234375 6.91796875 C-0.22542969 6.51191406 -0.85320312 6.10585937 -1.5 5.6875 Z " fill="#6B5353" transform="translate(322.5,75.3125)"/>
<path d="M0 0 C0.66 0 1.32 0 2 0 C3.1390881 4.92745805 4.17215286 9.84598283 5.04296875 14.828125 C9.13986176 38.05649679 17.02637783 59.01842754 25.73742676 80.84796143 C27.34167721 84.86975816 28.93551337 88.89546442 30.51870728 92.92559814 C31.03668278 94.23842937 31.55830818 95.54982809 32.08407593 96.85955811 C37.43327924 110.18875593 41.4521881 123.5377659 42 138 C42.74443359 137.566875 42.74443359 137.566875 43.50390625 137.125 C48.15486952 134.58329711 51.57949939 133.19696287 57 134 C72.59817589 142.73248943 80.51045346 168.24388661 85.31640625 184.54882812 C89.28737965 198.78760416 92.11051762 213.34294477 94 228 C94.09063721 228.68779541 94.18127441 229.37559082 94.2746582 230.08422852 C94.9247561 235.69383613 95.14415341 241.29387136 95.32421875 246.93359375 C95.92526629 265.1436082 97.06263549 282.74967565 100.54336548 300.6517334 C103.15901734 314.19866192 103.71849033 327.18103597 103 341 C101.35 341 99.7 341 98 341 C97.97421875 339.78570312 97.9484375 338.57140625 97.921875 337.3203125 C97.43249466 320.95848041 94.96823969 305.05403884 92.10546875 288.95703125 C90.41067959 279.09348039 89.7428875 269.44598697 89.5 259.4375 C88.94425478 236.86941135 86.33136343 214.9481244 81 193 C80.81211914 192.2251123 80.62423828 191.45022461 80.43066406 190.65185547 C76.4664126 174.82664843 69.65986872 149.0765786 55 140 C51.78884048 140.1690084 49.88692096 141.06255436 47.0625 142.625 C43.48921273 144.22933306 41.72668043 143.97603535 38 143 C36.78986703 138.39534151 35.77327566 133.88246635 35.0637207 129.16870117 C32.86371997 114.83702322 27.75348834 101.68199985 22.3203125 88.30761719 C-1.778389 28.71768896 -1.778389 28.71768896 0 0 Z " fill="#6C5252" transform="translate(146,15)"/>
<path d="M0 0 C0.99 0 1.98 0 3 0 C1.75378797 5.98181777 0.22422227 11.80382712 -1.51245117 17.66088867 C-16.67190407 66.00700359 -16.67190407 66.00700359 -22 116 C-21.8548999 115.02579102 -21.7097998 114.05158203 -21.56030273 113.04785156 C-9.96803993 35.8534179 -9.96803993 35.8534179 15 17 C18.23677192 15.38161404 21.49194727 15.57826689 25 16 C34.26552332 19.47457125 38.94395922 28.3984984 42.95263672 36.98681641 C47.03450489 46.10777816 50.52264624 55.46687072 53.94311523 64.85229492 C55.3903078 68.81114942 56.78922035 72.5982013 58.75 76.3359375 C60.19158318 79.40831165 60.31080338 81.5047075 60.1875 84.875 C60.14689453 86.32519531 60.14689453 86.32519531 60.10546875 87.8046875 C60.07066406 88.52914062 60.03585937 89.25359375 60 90 C56.61214737 86.85597691 54.88204152 83.13182906 52.9375 79 C52.35476318 77.77192627 52.35476318 77.77192627 51.76025391 76.51904297 C48.3798054 69.20169907 45.60594925 61.70429797 42.875 54.125 C37.02582425 35.53386205 37.02582425 35.53386205 24 22 C20.95625267 21.0831537 20.95625267 21.0831537 18 22 C13.62849639 25.25950606 10.60173393 28.52789986 7.5 33.0625 C6.7884375 34.08472656 6.076875 35.10695312 5.34375 36.16015625 C-0.25931516 44.99157776 -4.03873546 54.11309799 -6.54296875 64.2421875 C-6.83439255 65.3950827 -7.12581635 66.54797791 -7.42607117 67.73580933 C-10.75171757 81.37605232 -12.89723228 95.2013293 -14.99969482 109.07019043 C-15.73580652 113.90569019 -16.49392261 118.73780231 -17.2495575 123.57028198 C-17.64689223 126.11950325 -18.04007829 128.66937606 -18.42829895 131.22000122 C-20.50714977 144.73197119 -20.50714977 144.73197119 -22 150 C-22.99 150.33 -23.98 150.66 -25 151 C-25.66 150.67 -26.32 150.34 -27 150 C-38.66990278 109.18814724 -18.86134737 53.40928621 -6.4375 14.875 C-6.2259024 14.21707458 -6.01430481 13.55914917 -5.79629517 12.88128662 C-2.39367974 2.39367974 -2.39367974 2.39367974 0 0 Z " fill="#6B5353" transform="translate(300,15)"/>
<path d="M0 0 C0.99 0.33 1.98 0.66 3 1 C3.20044922 2.07556152 3.40089844 3.15112305 3.60742188 4.25927734 C8.00069769 27.67880173 13.11201454 50.19485401 21 72.71875 C37.40784038 119.90179356 42.70562111 162.9954196 27.43286133 211.18725586 C24.10811044 221.69309562 21.45618626 232.23768757 19.125 243 C18.97370636 243.69680878 18.82241272 244.39361755 18.66653442 245.11154175 C12.12927159 275.39266614 14.09704905 303.4094954 25.546875 332.1640625 C26.70047169 335.0849013 27.53134012 337.87971184 28 341 C26.35 341 24.7 341 23 341 C19.34028118 334.1798671 16.57468954 327.41611427 14.375 320 C14.07650146 318.99670654 13.77800293 317.99341309 13.47045898 316.9597168 C1.65664617 276.09671545 12.37297443 235.30927079 25.29785156 195.93579102 C29.50488744 182.92477895 31.5274183 170.42889699 31.375 156.75 C31.36935028 156.07214447 31.36370056 155.39428894 31.35787964 154.69589233 C31.24915389 143.49812403 30.50736464 132.91473423 28 122 C27.72542969 120.77877441 27.45085937 119.55754883 27.16796875 118.29931641 C23.22373558 100.92836698 18.48376829 83.94689633 12.8125 67.0625 C5.65096988 45.71274841 -0.09826348 23.62538914 -1 1 C-0.67 0.67 -0.34 0.34 0 0 Z " fill="#6B5353" transform="translate(116,15)"/>
<path d="M0 0 C10.04374536 8.19587014 12.52774177 20.74847665 14 33 C14.51911366 40.17369599 14.51415771 47.37331106 14.5625 54.5625 C14.58643606 57.37897665 14.61465509 60.19515773 14.65428162 63.01145935 C14.67830221 64.74545425 14.69343271 66.47960484 14.69789124 68.21376038 C14.7759701 74.25902548 15.02948915 79.78186743 19.20703125 84.484375 C20.06683594 85.23203125 20.92664063 85.9796875 21.8125 86.75 C31.83026512 96.31963998 33.88731036 108.08066884 34.375 121.5 C34.09944364 137.13782347 30.01867922 154.96264156 23 169 C21.02 169 19.04 169 17 169 C17.27154907 168.20275513 17.27154907 168.20275513 17.54858398 167.3894043 C25.18261457 144.76197088 33.48182319 120.12715437 23 97 C20.91251837 93.72961212 18.98024604 91.98427746 15.9375 89.5625 C11.52378982 85.71224219 9.86124582 81.68575521 9 76 C8.83939677 72.87828073 8.81536083 69.7581786 8.7890625 66.6328125 C8.76095923 64.75780429 8.73229461 62.88280442 8.703125 61.0078125 C8.66219596 58.08138583 8.62527409 55.15510901 8.59863281 52.22851562 C8.7800695 28.9946905 8.7800695 28.9946905 0 8 C-2.05851246 6.72691076 -2.05851246 6.72691076 -4 6 C-27.45167417 23.16179353 -41.64056967 67.75499632 -46 95 C-48.31573528 119.9630462 -41.56857662 142.93451776 -29.3203125 164.48828125 C-28 167 -28 167 -28 169 C-30.25390625 168.8828125 -30.25390625 168.8828125 -33 168 C-48.1016113 148.38827358 -53.83699087 120.14448543 -52 96 C-49.96601566 81.14377835 -44.52933554 66.85440254 -39 53 C-38.61682617 52.03739258 -38.23365234 51.07478516 -37.83886719 50.08300781 C-16.36040232 -3.14623121 -16.36040232 -3.14623121 0 0 Z " fill="#6B5353" transform="translate(190,187)"/>
<path d="M0 0 C1.32 0.33 2.64 0.66 4 1 C-0.36723547 42.93198686 -9.97621273 85.61238072 -26.12524414 124.7253418 C-27.90951368 129.36504017 -27.73239407 133.10635754 -25.97265625 137.65625 C-23.50539589 142.74113009 -20.67463337 147.57035474 -17.71386719 152.37744141 C-0.31404248 180.67613851 4.89737442 212.1095685 6.35415649 244.91113281 C7.65703935 273.6219926 10.58580589 301.2192551 17.33691406 329.22558594 C18.27251848 333.14024299 19.13819001 337.0685049 20 341 C18.02 341 16.04 341 14 341 C6.17759829 312.34351647 2.0125062 283.64786547 0.546875 254.0234375 C-1.3295205 216.12362935 -6.18708726 183.43317809 -25.63476562 150.32763672 C-27.38535064 147.34300196 -29.10445167 144.35676441 -30.75 141.3125 C-31.19859375 140.50425781 -31.6471875 139.69601563 -32.109375 138.86328125 C-34.98616711 129.61464698 -31.83255041 121.6840328 -28.49981689 113.00302124 C-14.5731757 76.51949064 -6.33301304 38.44718778 0 0 Z " fill="#6B5353" transform="translate(250,15)"/>
<path d="M0 0 C0.66 0 1.32 0 2 0 C2.11357853 4.74848526 1.76804291 9.02882524 0.8203125 13.6796875 C0.69214645 14.3128891 0.56398041 14.9460907 0.43193054 15.59848022 C0.00443518 17.69242591 -0.43463377 19.78372588 -0.875 21.875 C-1.02595123 22.60376343 -1.17690247 23.33252686 -1.33242798 24.08337402 C-3.9874138 36.88017446 -7.04267138 49.56607132 -10.1875 62.25 C-24.90322098 121.78215169 -20.10325625 173.0157355 -1.27307129 231.25405884 C2.30462984 242.32078716 5.51914494 253.39781439 8.3125 264.6875 C15.04811048 291.64016548 26.54188183 314.51972069 40.96533203 338.18432617 C42 340 42 340 42 341 C39.36328125 341.55859375 39.36328125 341.55859375 36 341 C33.54601341 338.33643759 31.92174818 335.22569523 30.1875 332.0625 C29.66833008 331.15242188 29.14916016 330.24234375 28.61425781 329.3046875 C27.05278907 326.54881529 25.5249223 323.77621841 24 321 C23.16878545 319.52948597 22.33682153 318.05939513 21.50390625 316.58984375 C19.19856736 312.45809546 17.0541174 308.26187769 15 304 C14.67080566 303.31760254 14.34161133 302.63520508 14.00244141 301.93212891 C7.89059434 288.87348298 4.52359742 275.1010283 0.99902344 261.18676758 C-1.98505311 249.47509925 -5.44520751 237.98971016 -9.1875 226.5 C-18.31692646 198.32328974 -26.16548821 168.75215942 -27 139 C-27.03996094 138.08734375 -27.07992187 137.1746875 -27.12109375 136.234375 C-27.90753953 103.85131364 -19.0365936 72.13106733 -10.75854492 41.1394043 C-10.21240862 39.09171923 -9.66658759 37.04395006 -9.12109375 34.99609375 C-8.85648849 34.00369186 -8.59188324 33.01128998 -8.31925964 31.98881531 C-6.19214752 23.924642 -4.30562956 15.81654751 -2.53794861 7.66636658 C-2.34890457 6.80330399 -2.15986053 5.94024139 -1.96508789 5.05102539 C-1.8018251 4.290121 -1.63856232 3.52921661 -1.47035217 2.74525452 C-1 1 -1 1 0 0 Z " fill="#6B5353" transform="translate(282,15)"/>
<path d="M0 0 C0.99 0 1.98 0 3 0 C3.70016971 15.71492019 0.80415803 28.63269121 -4.9375 43.1875 C-9.04156013 53.61219097 -11.84641983 64.01356241 -14 75 C-14.16951172 75.85754883 -14.33902344 76.71509766 -14.51367188 77.59863281 C-22.63386615 120.11116742 -26.66776238 163.39918827 -18 206 C-17.70217643 207.48581284 -17.40449163 208.97165349 -17.10693359 210.45751953 C-13.85701313 226.58472919 -10.27147265 242.55409524 -5.75 258.375 C-0.74804699 275.96328495 1.99225732 293.38827785 3.75 311.5625 C3.84808456 312.5636937 3.84808456 312.5636937 3.94815063 313.58511353 C4.82933572 322.76267251 5.1607038 331.78542263 5 341 C3.35 341 1.7 341 0 341 C-0.10022461 339.75726318 -0.20044922 338.51452637 -0.30371094 337.23413086 C-2.7508483 307.17008432 -6.29485657 278.82599362 -14.14160156 249.68701172 C-18.37807197 233.90381517 -21.87408132 218.03713637 -25 202 C-25.22445801 200.89978516 -25.44891602 199.79957031 -25.68017578 198.66601562 C-35.57888274 149.65108292 -28.31821684 86.74803925 -10.23291016 40.18383789 C-9.7847998 39.03004639 -9.33668945 37.87625488 -8.875 36.6875 C-8.21056885 34.97904907 -8.21056885 34.97904907 -7.53271484 33.23608398 C-4.030736 23.88573401 -2.3393235 14.87057807 -1.40234375 4.9609375 C-1 1 -1 1 0 0 Z " fill="#6B5353" transform="translate(81,15)"/>
<path d="M0 0 C0.66 0.33 1.32 0.66 2 1 C-0.63518486 25.84500846 -6.688682 49.25218661 -13.79998779 73.12283325 C-17.94163878 87.05087907 -21.70320702 100.94126421 -24.46240234 115.22167969 C-24.80221458 116.97783919 -25.15503863 118.73157502 -25.52587891 120.48144531 C-27.97566279 132.08823545 -28.30254431 143.67764602 -28.375 155.5 C-28.3830365 156.20849091 -28.391073 156.91698181 -28.39935303 157.64694214 C-28.60928151 182.06685524 -24.55357017 206.13843432 -20.0625 230.0625 C-10.85698838 279.57954922 -10.85698838 279.57954922 -9.75 301.1875 C-9.67357639 302.52019588 -9.59691046 303.85287788 -9.52001953 305.18554688 C-8.86497852 317.12131057 -8.77629253 329.05057948 -9 341 C-10.65 341 -12.3 341 -14 341 C-14.62767586 333.65201788 -15.10175902 326.33167561 -15.28253174 318.95898438 C-16.03666806 291.25853682 -19.84397093 264.52435234 -25 237.375 C-37.03116856 173.90850651 -34.33697436 120.55168522 -15.76611328 58.90332031 C-14.58486734 54.97992614 -13.4132513 51.05376613 -12.25 47.125 C-11.8802002 45.87686523 -11.51040039 44.62873047 -11.12939453 43.34277344 C-8.13535339 32.98944645 -5.8578497 22.57946034 -3.85058594 11.99658203 C-3.63305664 10.85817871 -3.41552734 9.71977539 -3.19140625 8.546875 C-2.91598999 7.04398926 -2.91598999 7.04398926 -2.63500977 5.51074219 C-2 3 -2 3 0 0 Z " fill="#6C5353" transform="translate(73,15)"/>
<path d="M0 0 C0.99 0 1.98 0 3 0 C2.42357552 10.64073419 0.31346522 21.04425172 -1.625 31.5 C-1.89343719 32.95678162 -1.89343719 32.95678162 -2.16729736 34.44299316 C-3.26233545 40.38373579 -4.36915111 46.32218586 -5.48510742 52.2590332 C-5.95886896 54.78104402 -6.42988428 57.30355222 -6.90039062 59.82617188 C-10.5009358 79.05599816 -14.82568964 98.02073386 -19.80029297 116.94433594 C-20.0126207 117.76361572 -20.22494843 118.58289551 -20.44371033 119.42700195 C-20.83985577 120.95381887 -21.24279225 122.47889797 -21.65406799 124.00170898 C-25.11709879 137.41035404 -20.01460218 149.67048471 -15.1875 162.0625 C-3.92407506 191.06568806 2.21741697 220.02900768 5 251 C7.77481497 281.04481862 12.38197933 305.89793447 27.1171875 332.49609375 C28.62706397 335.30596759 29.90589713 338.01137162 31 341 C28.68725586 341.24169922 28.68725586 341.24169922 26 341 C24.37719727 339.38720703 24.37719727 339.38720703 23.00390625 337.1328125 C22.50004395 336.30813477 21.99618164 335.48345703 21.47705078 334.63378906 C19.13185815 330.4519811 16.97178015 326.21627469 14.9375 321.875 C14.2885376 320.49042603 14.2885376 320.49042603 13.62646484 319.07788086 C4.14046842 298.49745521 1.232368 277.86715654 -0.63336182 255.4564209 C-3.7755302 217.82500591 -12.35231997 183.42362065 -26.203125 148.19702148 C-30.96647043 135.06425632 -27.312435 121.57674443 -23.72695923 108.6711731 C-16.4414849 82.29009005 -11.40045047 55.489433 -6.3047142 28.62232018 C-5.98154298 26.91856167 -5.6580369 25.21486665 -5.3341713 23.51124001 C-4.58133959 19.55088394 -3.83252883 15.58988945 -3.09371948 11.62689209 C-2.82926946 10.22462991 -2.56471863 8.82238673 -2.30004883 7.42016602 C-1.95796135 5.58881859 -1.95796135 5.58881859 -1.60896301 3.72047424 C-1 1 -1 1 0 0 Z " fill="#6B5353" transform="translate(266,15)"/>
<path d="M0 0 C1.90625 0.10546875 1.90625 0.10546875 4 1 C19.84812563 27.39818601 17.67369751 70.44894728 19.9977417 100.49957275 C20.2532619 103.78237863 20.51560285 107.06462393 20.77820873 110.34686947 C21.09789547 114.34434842 21.41461639 118.34206019 21.73046875 122.33984375 C21.78818136 123.06963881 21.84589397 123.79943386 21.90535545 124.55134392 C23.05832182 139.19637633 24.17889364 153.79858848 24.0625 168.5 C24.05798828 169.62019531 24.05347656 170.74039063 24.04882812 171.89453125 C24.03728161 174.59641628 24.02100701 177.29817495 24 180 C22.35 180 20.7 180 19 180 C18.93530518 178.91662354 18.87061035 177.83324707 18.80395508 176.71704102 C15.08691885 110.98204718 15.08691885 110.98204718 8.4375 45.5 C8.34357971 44.75073242 8.24965942 44.00146484 8.15289307 43.22949219 C6.30931326 26.14614275 6.30931326 26.14614275 1 10 C-0.25031715 12.92890172 -1.47057158 15.86958693 -2.6875 18.8125 C-3.02716797 19.60720703 -3.36683594 20.40191406 -3.71679688 21.22070312 C-9.93545012 36.38956758 -12.90575415 52.59420266 -15.625 68.6875 C-15.92645415 70.43620818 -16.22796846 72.18490599 -16.52954102 73.93359375 C-18.74541489 86.91231588 -20.60272265 99.9055151 -22 113 C-22.33 113 -22.66 113 -23 113 C-23.72268267 95.85759637 -23.08652357 79.43759731 -20.25 62.5 C-20.12357117 61.73402496 -19.99714233 60.96804993 -19.86688232 60.17886353 C-17.50474397 46.08605779 -14.23847798 32.3940172 -9 19.0625 C-8.67 18.19560547 -8.34 17.32871094 -8 16.43554688 C-2.68757688 2.68757688 -2.68757688 2.68757688 0 0 Z " fill="#6B5353" transform="translate(23,176)"/>
<path d="M0 0 C8.26030568 5.64118437 10.4884774 17.63459773 12.31640625 26.8671875 C13.38177456 32.99962688 14.15886798 39.18319773 14.91064453 45.36083984 C15.74036229 52.36206102 15.74036229 52.36206102 18 59 C20.31470912 59.72870472 22.6505947 60.39239518 25 61 C30.07066924 65.93362413 31.24725724 71.6351876 31.38061523 78.46923828 C31.34158669 95.19042338 27.42318879 112.86521681 18 127 C15.375 127.1875 15.375 127.1875 13 127 C14.54476936 122.10823037 16.24015304 117.35272413 18.20605469 112.61230469 C22.44883895 102.32629265 25.23163167 92.89867561 25.375 81.6875 C25.38901855 80.93428467 25.40303711 80.18106934 25.41748047 79.4050293 C25.37299437 74.25205606 24.53017071 70.52399187 22 66 C18.53294462 64.75938783 18.53294462 64.75938783 15 64 C8.61460471 57.12342046 8.66467804 45.61181129 7.625 36.75 C5.75140439 19.79263569 5.75140439 19.79263569 -2 5 C-12.05701949 9.07175789 -17.1393465 23.62515494 -21.15869141 32.96240234 C-29.86255108 54.04261502 -29.27520841 76.78797635 -20.76855469 97.87573242 C-17.79872347 104.82538885 -14.19933878 111.47584089 -10.60742188 118.11938477 C-10.14142578 118.98362061 -9.67542969 119.84785645 -9.1953125 120.73828125 C-8.77266113 121.51212158 -8.35000977 122.28596191 -7.91455078 123.08325195 C-7 125 -7 125 -7 127 C-8.32 127 -9.64 127 -11 127 C-12.82279363 124.57890846 -14.28103479 122.31543366 -15.75 119.6875 C-16.18320557 118.92928955 -16.61641113 118.1710791 -17.06274414 117.38989258 C-29.89497464 94.36244907 -37.28611037 69.46232939 -30.63818359 43.18310547 C-26.31786818 28.4041229 -18.82088729 12.07852746 -8 1 C-5.11138291 -0.44430855 -3.20352299 -0.37688506 0 0 Z " fill="#6C5353" transform="translate(184,229)"/>
<path d="M0 0 C2.9375 1.25 2.9375 1.25 3.953125 2.8671875 C7.05981333 10.69482377 7.10378513 18.80358549 7.140625 27.10546875 C7.15114647 28.67581123 7.15114647 28.67581123 7.16188049 30.27787781 C7.17939399 33.66446215 7.18573828 37.05087196 7.1875 40.4375 C7.18817474 41.58937805 7.18884949 42.7412561 7.18954468 43.92803955 C7.12266326 115.61867015 7.12266326 115.61867015 -12.0625 135.25 C-14.25 135.25 -14.25 135.25 -17.0625 134.25 C-23.91097646 127.13496608 -26.22600056 115.25320831 -26.5625 105.75 C-26.17837389 94.82227437 -21.96790791 84.61185914 -18.11328125 74.50390625 C-16.03825986 68.07828239 -15.83994853 61.49021139 -15.41650391 54.79443359 C-14.7655377 44.54136879 -13.99792346 34.31688532 -12.6875 24.125 C-12.5858252 23.26898193 -12.48415039 22.41296387 -12.37939453 21.53100586 C-11.39688367 14.38207637 -9.34735879 7.52496426 -5.1875 1.5625 C-3.0625 0.25 -3.0625 0.25 0 0 Z M-2.0625 5.25 C-8.05444821 16.03550678 -8.59768441 27.48306002 -9.625 39.5625 C-9.7514641 40.99678799 -9.87841471 42.43103318 -10.00585938 43.86523438 C-10.57700548 50.34968177 -11.10240175 56.83261054 -11.53515625 63.328125 C-11.89174947 68.0213872 -12.56996555 72.18735757 -13.9375 76.6875 C-14.26492188 77.79996094 -14.59234375 78.91242188 -14.9296875 80.05859375 C-16.0625 83.25 -16.0625 83.25 -17.5703125 86.16015625 C-20.56662576 92.36456407 -21.47531177 98.59408297 -21.5 105.4375 C-21.50314209 106.16783447 -21.50628418 106.89816895 -21.50952148 107.65063477 C-21.33587488 115.65670322 -18.62491918 122.12516164 -15.0625 129.25 C-12.05519834 128.21948068 -11.13623738 127.37553789 -9.5 124.58984375 C-1.92807394 106.66824703 0.17572059 88.52153303 1.9375 69.25 C2.03538818 68.21214355 2.13327637 67.17428711 2.23413086 66.10498047 C2.93038999 58.0666347 3.12373335 50.05702123 3.12280273 41.99414062 C3.12499076 39.88390951 3.14324259 37.7742021 3.16210938 35.6640625 C3.20319591 25.6041492 3.14478238 14.87184715 -0.0625 5.25 C-0.7225 5.25 -1.3825 5.25 -2.0625 5.25 Z " fill="#6B5353" transform="translate(321.0625,106.75)"/>
<path d="M0 0 C1.32 0 2.64 0 4 0 C4.09273193 0.64807617 4.18546387 1.29615234 4.28100586 1.96386719 C7.71387509 24.3808703 15.51233104 44.53859159 23.97428894 65.4744873 C28.58916325 76.89533142 33.07781968 88.26851963 36.1640625 100.2109375 C37.44679888 104.87867266 39.16388414 108.15867851 42 112 C55.66349782 100.50658713 58.53323291 67.15732285 62.5065918 50.89086914 C64.05430588 44.59595374 65.75957419 38.41688164 67.75 32.25 C71.06905107 21.82270354 71.90066345 10.84140239 73 0 C74.65 0 76.3 0 78 0 C78.65667713 15.56568017 75.42176047 29.09922131 70.75512695 43.81518555 C68.49148694 51.06177722 66.73015028 58.33261624 65.125 65.75 C63.04753812 75.19760701 60.4782551 84.37864023 57.4375 93.5625 C56.89150146 95.22974121 56.89150146 95.22974121 56.33447266 96.93066406 C50.90640492 112.88124443 50.90640492 112.88124443 45 118 C42.6875 118.625 42.6875 118.625 40 118 C31.83161281 111.85754526 29.61893325 100.12076036 26.84765625 90.87109375 C23.73285721 80.7271375 19.84664431 70.88378799 16 61 C3.16908137 28.03150347 3.16908137 28.03150347 1.1875 14.375 C1.06697266 13.63894531 0.94644531 12.90289062 0.82226562 12.14453125 C0.18327744 8.06230959 -0.1237585 4.12962567 0 0 Z " fill="#6C5353" transform="translate(157,15)"/>
<path d="M0 0 C4.55391837 1.02230821 7.16420247 3.05402456 10.0625 6.6875 C17.68177683 21.10103643 18.27571047 39.5193842 18.25 55.4375 C18.24909363 56.46861908 18.24909363 56.46861908 18.24816895 57.52056885 C18.19762748 78.73750452 17.60942678 103.09418626 6.1875 121.75 C3.3948448 124.29624444 1.83895307 124.76302906 -1.9375 124.6875 C-11.1780094 119.69032979 -14.43792932 108.96731739 -17.3125 99.375 C-21.47476837 83.33070056 -20.11096923 67.66455733 -17.5625 51.5 C-17.09107182 48.41764141 -16.62789534 45.33409418 -16.16796875 42.25 C-16.00020683 41.13121208 -16.00020683 41.13121208 -15.82905579 39.98982239 C-14.83770555 33.26151108 -14.12976968 26.51562303 -13.74658203 19.72387695 C-13.25376084 13.08767888 -10.97571098 7.25850523 -6.0625 2.6875 C-2.9375 0.6875 -2.9375 0.6875 0 0 Z M-4 7.0625 C-9.91275485 15.07332915 -9.95215415 26.39456651 -11 36 C-11.32040139 38.85070119 -11.64614667 41.70077414 -11.97265625 44.55078125 C-12.05084091 45.24538956 -12.12902557 45.93999786 -12.20957947 46.65565491 C-12.70531046 50.97572385 -13.32956079 55.25722578 -14.0390625 59.546875 C-14.94615226 65.26930286 -15.28686941 70.83544986 -15.25 76.625 C-15.24436035 77.57375 -15.2387207 78.5225 -15.23291016 79.5 C-15.01174539 92.37573071 -12.59921714 107.98056071 -3.87109375 118.078125 C-2.09927009 119.87500368 -2.09927009 119.87500368 0.0625 119.8125 C3.92803434 117.63813693 5.70902752 113.63009328 7.22265625 109.59375 C11.8516371 92.11984825 13.34797874 74.90268183 13.4375 56.875 C13.44928284 55.71287994 13.44928284 55.71287994 13.46130371 54.52728271 C13.57437273 40.19749135 13.60377773 19.95182953 4.625 8.0625 C1.5328166 5.19657392 -0.35725964 4.63400643 -4 7.0625 Z " fill="#6C5353" transform="translate(89.9375,89.3125)"/>
<path d="M0 0 C0.99 0.33 1.98 0.66 3 1 C2.44606697 32.42310984 -9.67191372 61.94577316 -21.57519531 90.54248047 C-25.44862079 99.94197525 -29.12360955 109.42224016 -32.796875 118.90136719 C-33.54205323 120.82056405 -34.29126195 122.73820775 -35.046875 124.65332031 C-42.95616925 144.71018841 -47.81872309 165.51193514 -52.25 186.5625 C-52.50014359 187.75040634 -52.50014359 187.75040634 -52.75534058 188.96231079 C-55.05421707 199.93899372 -57.11202054 210.94547595 -59 222 C-59.33 222 -59.66 222 -60 222 C-62.80321598 180.40698339 -48.9959762 140.65843502 -33.19921875 102.72265625 C-19.89921398 70.75522177 -7.36234413 39.62454904 -1.46142578 5.36230469 C-1 3 -1 3 0 0 Z " fill="#6B5353" transform="translate(60,15)"/>
<path d="M0 0 C2.625 0.3125 2.625 0.3125 4.21484375 2.0703125 C11.57316746 13.77025103 7.59358298 33.190406 6.3125 46.125 C6.19495361 47.34034424 6.07740723 48.55568848 5.95629883 49.80786133 C3.31259345 74.62490655 3.31259345 74.62490655 -4.375 82.3125 C-5.695 82.3125 -7.015 82.3125 -8.375 82.3125 C-9.17413872 80.48241133 -9.96390755 78.64823034 -10.75 76.8125 C-11.41128906 75.28109375 -11.41128906 75.28109375 -12.0859375 73.71875 C-14.71344331 66.77576495 -15.78933896 60.49817256 -15.8125 53.125 C-15.81636719 52.24948486 -15.82023437 51.37396973 -15.82421875 50.47192383 C-15.61186268 37.61000304 -12.85493398 24.89552673 -10.375 12.3125 C-9.715 12.3125 -9.055 12.3125 -8.375 12.3125 C-8.2925 11.61125 -8.21 10.91 -8.125 10.1875 C-7.00009515 5.87536475 -4.7522371 0.62529436 0 0 Z M-0.375 4.3125 C-2.70072995 7.03743689 -3.95515928 9.48639817 -4.98046875 12.90234375 C-5.24150391 13.76923828 -5.50253906 14.63613281 -5.77148438 15.52929688 C-6.16303711 16.87604492 -6.16303711 16.87604492 -6.5625 18.25 C-6.83513672 19.14396484 -7.10777344 20.03792969 -7.38867188 20.95898438 C-8.655357 25.23523716 -9.52870276 28.82030067 -9.375 33.3125 C-7.93222368 30.46594131 -6.56324896 27.59610325 -5.25 24.6875 C-4.72019531 23.52347656 -4.72019531 23.52347656 -4.1796875 22.3359375 C-3.25182193 20.36568968 -3.25182193 20.36568968 -3.375 18.3125 C-2.715 18.3125 -2.055 18.3125 -1.375 18.3125 C-1.58125 18.869375 -1.7875 19.42625 -2 20 C-2.58973344 22.36458652 -2.58973344 22.36458652 -1.42431641 24.6394043 C-0.34156332 27.39767875 -0.06933729 29.44967033 0.0390625 32.39453125 C0.07773438 33.32587891 0.11640625 34.25722656 0.15625 35.21679688 C0.1871875 36.17650391 0.218125 37.13621094 0.25 38.125 C0.28867188 39.10404297 0.32734375 40.08308594 0.3671875 41.09179688 C0.46110816 43.49851374 0.54678201 45.90523012 0.625 48.3125 C0.955 48.3125 1.285 48.3125 1.625 48.3125 C2.70272523 40.40630769 2.80848767 32.59750117 2.8125 24.625 C2.82474609 23.33271484 2.83699219 22.04042969 2.84960938 20.70898438 C2.85154297 19.46052734 2.85347656 18.21207031 2.85546875 16.92578125 C2.85957764 15.79954346 2.86368652 14.67330566 2.86791992 13.51293945 C2.61320616 10.15711765 1.8193842 7.44712983 0.625 4.3125 C0.295 4.3125 -0.035 4.3125 -0.375 4.3125 Z M-4.375 27.3125 C-7.63550881 37.73448351 -8.90461554 48.56163396 -6.375 59.3125 C-0.71688277 53.65438277 -2.14054134 42.13212012 -2.109375 34.59765625 C-2.35577872 31.55022203 -2.76515854 29.86141564 -4.375 27.3125 Z M-10.375 33.3125 C-9.375 37.3125 -9.375 37.3125 -9.375 37.3125 Z M-11.375 42.3125 C-11.83622942 53.61262075 -11.72027214 63.65548221 -7.375 74.3125 C-6.715 74.9725 -6.055 75.6325 -5.375 76.3125 C-1.65568759 69.34095161 -0.21795336 64.32187866 -0.375 56.3125 C-1.92071278 58.63106917 -3.17118552 60.81888429 -4.375 63.3125 C-5.365 63.3125 -6.355 63.3125 -7.375 63.3125 C-9.14901632 58.68275009 -9.77141621 54.35205157 -10 49.4375 C-10.03867188 48.74914062 -10.07734375 48.06078125 -10.1171875 47.3515625 C-10.21048166 45.67226754 -10.29378238 43.99242233 -10.375 42.3125 C-10.705 42.3125 -11.035 42.3125 -11.375 42.3125 Z M-0.375 51.3125 C-0.375 52.9625 -0.375 54.6125 -0.375 56.3125 C-0.045 56.3125 0.285 56.3125 0.625 56.3125 C0.625 54.6625 0.625 53.0125 0.625 51.3125 C0.295 51.3125 -0.035 51.3125 -0.375 51.3125 Z " fill="#6C5353" transform="translate(93.375,109.6875)"/>
<path d="M0 0 C2.3671875 0.21875 2.3671875 0.21875 5 1 C13.86942065 14.4418549 13.08350205 38.21329753 13.53515625 53.5546875 C13.57832046 54.94655106 13.62173671 56.33840682 13.66539001 57.73025513 C13.75570968 60.63309762 13.84372937 63.53599722 13.92993164 66.43896484 C14.03948826 70.1257127 14.15369268 73.81229774 14.26950932 77.49885368 C14.3593621 80.3695939 14.44727302 83.24039103 14.53457451 86.11120987 C14.59585245 88.12054009 14.65826817 90.12983551 14.72071838 92.13912964 C14.94555894 99.76218099 15.05127121 107.37369758 15 115 C13.35 115 11.7 115 10 115 C9.21183458 110.78408715 8.84313795 106.74351856 8.75048828 102.45751953 C8.72020538 101.17402618 8.68992249 99.89053284 8.65872192 98.56814575 C8.63736364 97.54731588 8.63736364 97.54731588 8.61557388 96.50586319 C8.56938955 94.33951997 8.51647438 92.17343435 8.4616394 90.0072937 C8.30634296 83.84964491 8.15770178 77.69189064 8.02587891 71.53369141 C7.52354277 39.97582949 7.52354277 39.97582949 2 9 C-6.28799847 21.4319977 -8.31246316 39.68035353 -11.8125 53.9375 C-12.41546383 56.37448555 -13.01897518 58.8113357 -13.62304688 61.24804688 C-15.08834524 67.16381887 -16.54688399 73.0812245 -18 79 C-18.33 79 -18.66 79 -19 79 C-19.51132071 67.24959089 -18.14560316 56.73173932 -15.4375 45.3125 C-15.07313266 43.727727 -14.70887594 42.14292857 -14.34472656 40.55810547 C-7.17557322 9.8274155 -7.17557322 9.8274155 0 0 Z " fill="#6B5252" transform="translate(19,241)"/>
<path d="M0 0 C3.06720535 0.63940174 3.66509549 1.23860703 5.3671875 3.83203125 C8.83000483 9.37960595 10.64073159 15.48357794 12.73681641 21.63354492 C14.79341466 27.36635496 17.07307535 30.87371685 21.7578125 34.859375 C26.51313387 39.41120288 26.66679861 45.78550205 26.8046875 52.01953125 C26.68360177 57.44289759 25.90973276 62.2923331 24.4921875 67.51953125 C23.8321875 67.51953125 23.1721875 67.51953125 22.4921875 67.51953125 C22.40582031 68.14859375 22.31945312 68.77765625 22.23046875 69.42578125 C21.22827798 75.53086995 19.82698651 80.91007555 15.4921875 85.51953125 C11.88718262 86.97687365 10.229113 86.75472024 6.5546875 85.58203125 C-1.89534029 79.89119621 -5.9495364 72.30471063 -8.19140625 62.54296875 C-10.83663015 47.25539892 -10.18691093 31.70617097 -7.6953125 16.45703125 C-7.53015137 15.44012207 -7.36499023 14.42321289 -7.19482422 13.37548828 C-4.97868586 1.03141 -4.97868586 1.03141 0 0 Z M-0.5078125 5.51953125 C-0.99143946 7.68520669 -1.46948567 9.85212866 -1.9453125 12.01953125 C-2.21214844 13.22609375 -2.47898438 14.43265625 -2.75390625 15.67578125 C-4.44784663 24.31224413 -4.69068213 32.60608072 -4.6953125 41.39453125 C-4.70755859 42.61011719 -4.71980469 43.82570313 -4.73242188 45.078125 C-4.75131939 56.75678678 -3.77520872 68.33872527 4.234375 77.515625 C6.66954766 79.79686845 6.66954766 79.79686845 9.4921875 81.51953125 C11.61079055 81.4885786 11.61079055 81.4885786 13.4921875 80.51953125 C15.11635504 77.82950376 16.31217897 75.40601365 17.4921875 72.51953125 C17.86859375 71.6378125 18.245 70.75609375 18.6328125 69.84765625 C21.97753819 61.13252593 23.67995993 50.55935144 20.4296875 41.51953125 C18.72702193 38.88314586 17.5499148 37.67248888 15.2421875 35.70703125 C10.1385526 30.98104375 8.43994162 24.37988443 6.16796875 17.9921875 C4.60682642 13.63752206 2.63256857 9.61843095 0.4921875 5.51953125 C0.1621875 5.51953125 -0.1678125 5.51953125 -0.5078125 5.51953125 Z " fill="#6C5252" transform="translate(178.5078125,263.48046875)"/>
<path d="M0 0 C0.99 0.33 1.98 0.66 3 1 C3.79272461 3.13183594 3.79272461 3.13183594 4.40234375 5.984375 C4.64645996 7.05059082 4.89057617 8.11680664 5.14208984 9.21533203 C5.4045752 10.38177246 5.66706055 11.54821289 5.9375 12.75 C11.16498513 34.34052721 19.95704669 54.73060419 31 74 C33.26925299 71.73074701 33.59878111 70.48528351 34.4453125 67.43359375 C34.7139209 66.48460205 34.9825293 65.53561035 35.25927734 64.55786133 C35.54496582 63.52814209 35.8306543 62.49842285 36.125 61.4375 C39.0122888 51.25596708 42.12994355 41.17065029 45.42236328 31.11303711 C45.74446777 30.12311768 46.06657227 29.13319824 46.3984375 28.11328125 C46.68380371 27.24485596 46.96916992 26.37643066 47.26318359 25.48168945 C49.63385349 17.49697789 49.76083759 9.14387388 48 1 C49.65 0.67 51.3 0.34 53 0 C58.07777002 11.01203136 54.36510275 22.6059686 50.80029297 33.48632812 C49.58657862 37.29853159 48.49848731 41.14508167 47.39794922 44.99121094 C45.1326095 52.89711105 42.83547944 60.796934 40.3125 68.625 C39.78076172 70.28402344 39.78076172 70.28402344 39.23828125 71.9765625 C37.83142215 75.41160649 36.38139676 78.14232389 34 81 C31.484375 81.70703125 31.484375 81.70703125 29 81 C13.27410851 63.19650089 -2.17709174 24.66360292 -1 1 C-0.67 0.67 -0.34 0.34 0 0 Z " fill="#6B5353" transform="translate(168,15)"/>
<path d="M0 0 C0.33 0 0.66 0 1 0 C1.79744586 8.14469987 -0.7652591 14.52362498 -3.70056152 21.98199463 C-10.30528382 38.88198331 -15.41321549 56.14828501 -20.25 73.625 C-20.58146027 74.81088715 -20.91292053 75.99677429 -21.25442505 77.21859741 C-22.20650995 80.63504476 -23.1451769 84.05484491 -24.078125 87.4765625 C-24.35984055 88.49197617 -24.64155609 89.50738983 -24.93180847 90.55357361 C-27.81065802 101.2955972 -29.31547416 109.853535 -24 120 C-21.20630131 124.17467474 -18.14371627 128.08528595 -15 132 C-13.80589536 133.57835827 -12.61736337 135.16096786 -11.4375 136.75 C-10.96183594 137.38421875 -10.48617188 138.0184375 -9.99609375 138.671875 C-9.66738281 139.11015625 -9.33867187 139.5484375 -9 140 C-12.0625 140.5 -12.0625 140.5 -16 140 C-18.87621835 137.74327484 -20.88608357 134.96229531 -23 132 C-23.61230469 131.1440625 -24.22460938 130.288125 -24.85546875 129.40625 C-30.98668303 120.30747572 -35.62815274 110.98862913 -33.60038757 99.7938385 C-33.02527294 97.39599024 -32.38997783 95.02337112 -31.7265625 92.6484375 C-31.48755219 91.76443268 -31.24854187 90.88042786 -31.00228882 89.96963501 C-30.2219205 87.10128719 -29.42499948 84.23793021 -28.625 81.375 C-28.35300781 80.39225098 -28.08101563 79.40950195 -27.80078125 78.39697266 C-20.33225555 51.44628924 -11.48352738 25.5063951 0 0 Z " fill="#6B5353" transform="translate(359,216)"/>
<path d="M0 0 C0.66 0.66 1.32 1.32 2 2 C-7.82158713 36.17422822 -18.51769827 66.749945 -38.99560547 96.11523438 C-40.98093347 98.97255906 -42.9346123 101.849005 -44.87890625 104.734375 C-46.0647641 106.48981311 -47.25094482 108.24503316 -48.4375 110 C-49.26193604 111.22058105 -49.26193604 111.22058105 -50.10302734 112.46582031 C-50.60398926 113.19897461 -51.10495117 113.93212891 -51.62109375 114.6875 C-52.0586499 115.33074219 -52.49620605 115.97398437 -52.94702148 116.63671875 C-53.29450439 117.08660156 -53.6419873 117.53648437 -54 118 C-54.33 118 -54.66 118 -55 118 C-55.71971007 110.85826157 -54.4628205 106.99762107 -50.125 101.375 C-49.10834781 99.97730908 -48.0927458 98.57885376 -47.078125 97.1796875 C-46.3037207 96.13312988 -46.3037207 96.13312988 -45.51367188 95.06542969 C-27.2646153 70.16429765 -16.27164133 43.03422159 -7.0222168 13.75878906 C-6.77670074 12.99466705 -6.53118469 12.23054504 -6.27822876 11.44326782 C-5.81450596 9.99917637 -5.359364 8.55229236 -4.91415405 7.10238647 C-3.73569154 3.45603517 -3.29574509 2.19716339 0 0 Z " fill="#6B5353" transform="translate(55,15)"/>
<path d="M0 0 C0.66 0 1.32 0 2 0 C3.10603337 4.22923774 4.11237703 8.43296571 4.89453125 12.734375 C6.46833012 21.38599681 8.09176277 29.46968489 11.8515625 37.4921875 C13.12439559 40.27163936 14.07477199 43.08850269 15 46 C15.66 46 16.32 46 17 46 C17.26683594 45.19691406 17.53367188 44.39382812 17.80859375 43.56640625 C18.69058886 40.92620448 19.57900314 38.28859175 20.47265625 35.65234375 C21.00265895 34.08074764 21.53260579 32.50913269 22.0625 30.9375 C22.33126953 30.14794922 22.60003906 29.35839844 22.87695312 28.54492188 C25.12663809 21.85196886 26.17902484 15.72206888 26.5625 8.6875 C26.60568359 7.94693359 26.64886719 7.20636719 26.69335938 6.44335938 C26.79870432 4.62908536 26.89978316 2.8145645 27 1 C28.65614657 0.61781233 30.32457024 0.28604898 32 0 C33 1 33 1 33.1875 4.6875 C32.93477323 19.29970262 29.6384556 40.94332502 19 52 C16.31640625 52.74609375 16.31640625 52.74609375 14 53 C3.68225431 38.95935638 -3.34196738 18.69913051 -1 1 C-0.67 0.67 -0.34 0.34 0 0 Z " fill="#6C5353" transform="translate(180,15)"/>
<path d="M0 0 C-0.52086794 7.15672553 -3.24204868 13.44363376 -5.875 20.0625 C-6.11920685 20.67915527 -6.3634137 21.29581055 -6.61502075 21.93115234 C-16.50438947 46.81281206 -29.11668155 71.09382706 -46 92 C-46.33 92 -46.66 92 -47 92 C-47.56143308 85.49398138 -46.79696538 81.50870871 -42.75 76.25 C-41.8183288 74.94167438 -40.89285308 73.62892127 -39.97265625 72.3125 C-39.4842627 71.61640625 -38.99586914 70.9203125 -38.49267578 70.203125 C-25.24105337 50.64430252 -15.04773868 28.37144344 -6.35839844 6.47021484 C-3.75864131 0 -3.75864131 0 0 0 Z " fill="#6B5353" transform="translate(47,15)"/>
<path d="M0 0 C1.65 0.33 3.3 0.66 5 1 C11.30642159 19.75920329 12.47998086 39.34270209 13 59 C11.33388095 59.042721 9.66617115 59.04063832 8 59 C6.19567857 57.19567857 6.69796799 54.41385132 6.5703125 51.97265625 C6.4986084 50.71275879 6.4269043 49.45286133 6.35302734 48.15478516 C6.31602722 47.48570129 6.2790271 46.81661743 6.24090576 46.1272583 C5.55640483 33.93348159 4.43613807 21.98579929 2 10 C-0.84480623 19.26190729 -3.608547 28.38443671 -5 38 C-5.66 38 -6.32 38 -7 38 C-7.3257596 30.17224453 -6.48942862 23.21888063 -4.625 15.625 C-4.40328125 14.66722656 -4.1815625 13.70945312 -3.953125 12.72265625 C-2.91069408 8.31378664 -1.75521355 4.18622627 0 0 Z " fill="#6B5353" transform="translate(9,297)"/>
<path d="M0 0 C0.33 0 0.66 0 1 0 C0.70735294 5.56029416 -0.31437312 10.19034329 -2.1875 15.4375 C-4.75180136 22.66844566 -6.57268462 30.03184116 -8.3125 37.5 C-8.57893311 38.62204834 -8.84536621 39.74409668 -9.11987305 40.90014648 C-11.73159316 52.33939481 -11.1421473 58.85992348 -5 69 C-3.91369057 70.30406065 -2.79273415 71.5808185 -1.625 72.8125 C0.92836898 75.51215574 0.99021906 75.8973001 1.375 79.9375 C1.25125 80.948125 1.1275 81.95875 1 83 C-7.04409385 79.7214495 -12.54045357 69.63178912 -16 62 C-18.77110174 54.25468459 -16.34920014 46.1196986 -14.375 38.5 C-14.10502197 37.44280762 -13.83504395 36.38561523 -13.55688477 35.29638672 C-10.3176769 22.94626106 -6.11022294 11.24713602 0 0 Z " fill="#6C5353" transform="translate(359,270)"/>
<path d="M0 0 C1.78515625 0.11328125 1.78515625 0.11328125 4 1 C5.74609375 3.73046875 5.74609375 3.73046875 7.4375 7.1875 C10.09614945 12.56013741 10.09614945 12.56013741 14 17.0625 C16.79611462 21.16929334 16.22322559 24.13726497 15.58203125 28.94921875 C13.91067918 37.70979569 13.91067918 37.70979569 12 41 C9.89453125 42.2421875 9.89453125 42.2421875 8 43 C1.79134348 38.28998471 1.11238467 30.39672136 0.08178711 23.13818359 C-2.31845933 4.63691866 -2.31845933 4.63691866 0 0 Z M3 11 C4 13 4 13 4 13 Z M4 14 C4.3856646 21.11484687 5.39099399 27.35441866 8 34 C10.43359105 29.67035809 10.83581428 25.88377756 10 21 C8.59917807 18.23866756 7.06217684 16.36395882 5 14 C4.67 14 4.34 14 4 14 Z " fill="#6B5353" transform="translate(180,291)"/>
<path d="M0 0 C1.32 0 2.64 0 4 0 C1.13758005 19.73161487 -15.19290621 38.60208795 -28 53 C-28.71671875 53.84949219 -29.4334375 54.69898438 -30.171875 55.57421875 C-30.79578125 56.31285156 -31.4196875 57.05148438 -32.0625 57.8125 C-32.58972656 58.43769531 -33.11695313 59.06289062 -33.66015625 59.70703125 C-35 61 -35 61 -37 61 C-37.55240436 58.17659996 -37.70623118 56.74590585 -37 54 C-35.06209956 51.37948215 -32.88311329 49.12328664 -30.625 46.7734375 C-17.78361617 33.20590399 -8.53721771 16.49169018 0 0 Z " fill="#6B5252" transform="translate(37,15)"/>
<path d="M0 0 C0.99 0.33 1.98 0.66 3 1 C3.95001031 6.77115104 3.93606255 11.46585091 2.8125 17.1875 C2.67521484 17.92000977 2.53792969 18.65251953 2.39648438 19.40722656 C-1.06484749 37.09078649 -1.06484749 37.09078649 -6 44 C-8.6875 44.3125 -8.6875 44.3125 -11 44 C-14.11976388 37.76047225 -12.05390418 29.34728085 -10.13671875 23.02734375 C-9.33897699 20.65769704 -8.52229772 18.29434751 -7.6875 15.9375 C-7.28337891 14.72900391 -6.87925781 13.52050781 -6.46289062 12.27539062 C-3.15624871 2.64580418 -3.15624871 2.64580418 0 0 Z M-2 11 C-1 13 -1 13 -1 13 Z M-3 14 C-5.58459767 21.66964333 -7.63379732 28.88861071 -8 37 C-5.66941361 33.50412041 -4.80868 30.07958685 -3.8125 26.0625 C-3.62236328 25.34642578 -3.43222656 24.63035156 -3.23632812 23.89257812 C-2.3080523 20.19660167 -1.8784054 17.63448981 -3 14 Z " fill="#6C5252" transform="translate(316,174)"/>
<path d="M0 0 C5.09219146 0.46772722 7.82519967 1.97572665 11.8125 5.125 C12.58907959 5.73287354 12.58907959 5.73287354 13.38134766 6.35302734 C14.92545713 7.56288925 16.46282547 8.78133911 18 10 C18.84691406 10.6290625 19.69382812 11.258125 20.56640625 11.90625 C29.12661736 18.27933442 35.83537734 26.04111973 40 36 C40.5239851 40.085229 40.45655726 43.91272545 40 48 C36.70003327 46.35001663 35.82579427 42.72260924 34.3125 39.5 C27.19226334 24.8598225 16.87072144 16.25906968 4.09765625 6.5546875 C2.67594415 5.43738905 1.32867847 4.22647243 0 3 C0 2.01 0 1.02 0 0 Z " fill="#6C5353" transform="translate(320,15)"/>
<path d="M0 0 C1.98 0.495 1.98 0.495 4 1 C5.32 6.28 6.64 11.56 8 17 C8.99 11.39 9.98 5.78 11 0 C12.65 0 14.3 0 16 0 C15.64838839 8.41442956 14.90830856 16.06159801 12 24 C10.35 24.33 8.7 24.66 7 25 C3.18013761 20.89063225 1.9106375 17.25400601 0.6875 11.9375 C0.50638672 11.23044922 0.32527344 10.52339844 0.13867188 9.79492188 C-0.71291408 6.26597617 -1.3867839 3.44459226 0 0 Z " fill="#6B5353" transform="translate(188,15)"/>
<path d="M0 0 C0.99 0 1.98 0 3 0 C1.33980894 11.33789018 -8.66957086 20.67589663 -16 29 C-17.08474609 30.23556641 -17.08474609 30.23556641 -18.19140625 31.49609375 C-19.34291508 32.80626559 -20.49832343 34.113037 -21.66015625 35.4140625 C-23.19586838 37.17112859 -23.19586838 37.17112859 -25 40 C-25.66 40 -26.32 40 -27 40 C-27.43825342 36.93222604 -27.65076607 34.97712667 -27 32 C-25.30968614 29.77780071 -23.4111517 28.05078115 -21.33984375 26.1796875 C-16.01220338 21.21671033 -11.65048781 15.23580955 -7.3125 9.40625 C-6.86438965 8.8083667 -6.4162793 8.2104834 -5.95458984 7.59448242 C-5.08139208 6.42417936 -4.21680801 5.24738998 -3.36181641 4.0637207 C-2.31108807 2.65425409 -1.16196279 1.31926822 0 0 Z " fill="#6B5353" transform="translate(27,15)"/>
</svg>
